<?xml version="1.0" encoding="UTF-8"?>
<svg version="1.1" xmlns="http://www.w3.org/2000/svg" width="2048" height="2048">
<path d="M0 0 C1.02335449 0.54575684 1.02335449 0.54575684 2.06738281 1.10253906 C10.86045128 5.81647563 19.11174853 10.85507683 27 17 C27.78117187 17.58910156 28.56234375 18.17820312 29.3671875 18.78515625 C37.38664045 24.97722566 44.69858706 31.98949633 52 39 C52.58974609 39.55913086 53.17949219 40.11826172 53.78710938 40.69433594 C55.23086686 42.08985533 56.62091366 43.54053746 58 45 C58 45.66 58 46.32 58 47 C58.66 47 59.32 47 60 47 C86.31056368 74.78486251 103.16521082 113.77835129 110 151 C110.32097656 152.71703125 110.32097656 152.71703125 110.6484375 154.46875 C116.56731989 191.86922423 113.22263671 234.37995283 97 269 C96.34 269.66 95.68 270.32 95 271 C94.84144531 269.93265625 94.68289063 268.8653125 94.51953125 267.765625 C92.12045539 252.21841303 89.00584969 236.59674148 83 222 C82.73880371 221.34273926 82.47760742 220.68547852 82.20849609 220.00830078 C73.14348423 197.21813014 61.72529547 175.55672246 45.546875 156.96875 C44 155 44 155 44 153 C43.34 153 42.68 153 42 153 C40.6953125 151.671875 40.6953125 151.671875 39.125 149.75 C30.35989838 139.49990183 20.83040278 130.97277672 10 123 C8.90558594 122.13761719 8.90558594 122.13761719 7.7890625 121.2578125 C3.33679049 117.7505125 -1.35124518 115.06904074 -6.36328125 112.4296875 C-8.56988863 111.23321594 -10.61116765 109.96505563 -12.6875 108.5625 C-46.57060846 87.11923461 -95.76495329 81.2005931 -134.53222656 89.44335938 C-147.34496593 92.33345096 -160.13538446 95.22230656 -172 101 C-173.76537109 101.82564453 -173.76537109 101.82564453 -175.56640625 102.66796875 C-191.01771653 110.03102691 -206.23165166 118.5173534 -219 130 C-220.41651935 131.22933644 -221.83317708 132.45851345 -223.25 133.6875 C-223.88292969 134.24953125 -224.51585937 134.8115625 -225.16796875 135.390625 C-226.36292475 136.4403518 -227.5734496 137.47269164 -228.80078125 138.484375 C-235.76040132 144.22490419 -241.17881932 151.07748521 -246.51953125 158.3125 C-247.00808594 158.869375 -247.49664063 159.42625 -248 160 C-248.66 160 -249.32 160 -250 160 C-250.20625 160.66 -250.4125 161.32 -250.625 162 C-251.78819614 164.53788249 -252.80973697 166.1590858 -254.5 168.3125 C-263.17531641 179.59041134 -270.06046557 192.10527075 -276 205 C-276.33773437 205.73057617 -276.67546875 206.46115234 -277.0234375 207.21386719 C-285.85234833 226.57274779 -292.24149461 247.86056269 -295 269 C-295.66 269 -296.32 269 -297 269 C-318.72448668 215.65288774 -317.77049314 156.60166667 -295.6875 103.5625 C-286.58625688 82.38652542 -274.08521535 64.30362937 -259 47 C-258.37351562 46.26136719 -257.74703125 45.52273438 -257.1015625 44.76171875 C-249.23745681 35.55000809 -240.56693263 27.41622684 -231 20 C-230.4524707 19.57074219 -229.90494141 19.14148438 -229.34082031 18.69921875 C-220.06831898 11.4728112 -210.38853063 5.51632731 -199.98779297 0.04882812 C-198.32630188 -0.82783188 -196.67886585 -1.73106238 -195.03515625 -2.640625 C-172.54763281 -14.66038789 -146.35675689 -21.81213823 -121 -24 C-120.34257813 -24.06026367 -119.68515625 -24.12052734 -119.0078125 -24.18261719 C-77.90481243 -27.79249963 -36.31414454 -19.56759199 0 0 Z " fill="#FFFFFF" transform="translate(1124,792)"/>
<path d="M0 0 C2.16154287 -0.00958556 4.32208298 -0.040598 6.48339844 -0.07226562 C30.06221262 -0.25676444 30.06221262 -0.25676444 38.23681641 5.17285156 C40.32714844 7.24023438 40.32714844 7.24023438 41.01464844 10.05273438 C39.85603447 15.42449006 37.08242812 18.43659601 32.58544922 21.38037109 C25.73420057 25.54605234 18.72180111 29.15110728 11.32714844 32.24023438 C9.70053191 33.00765063 8.0754535 33.77833803 6.45214844 34.55273438 C0.34312438 37.34399845 -5.93274601 39.51251024 -12.27441406 41.70117188 C-16.46167145 43.15096139 -20.598133 44.71695371 -24.73535156 46.30273438 C-33.68276985 49.70826079 -42.78346184 52.57226642 -51.99511719 55.18115234 C-55.39391471 56.15990856 -58.76617425 57.19526231 -62.13769531 58.26367188 C-92.99734165 67.98482158 -92.99734165 67.98482158 -108.36425781 70.74804688 C-111.5166845 71.42013784 -114.58006229 72.33389827 -117.67285156 73.24023438 C-131.58608223 77.29693944 -131.58608223 77.29693944 -138.40112305 78.71411133 C-140.71477333 79.24994329 -142.94944713 79.91434847 -145.21582031 80.62304688 C-150.83907398 82.32795309 -156.51664741 83.70892545 -162.23535156 85.05273438 C-164.44763334 85.57729603 -166.65987168 86.10204094 -168.87207031 86.62695312 C-169.99661621 86.8929834 -171.12116211 87.15901367 -172.27978516 87.43310547 C-175.58644408 88.21968011 -178.88987248 89.01846684 -182.19238281 89.82226562 C-191.93435996 92.1908303 -201.67994134 94.52211606 -211.48535156 96.61523438 C-212.6501001 96.86684326 -212.6501001 96.86684326 -213.83837891 97.12353516 C-217.22053262 97.83015145 -220.19897016 98.24023438 -223.67285156 98.24023438 C-223.63732178 97.44367432 -223.60179199 96.64711426 -223.56518555 95.82641602 C-222.67198973 74.90117909 -222.77943888 54.16351362 -223.67285156 33.24023438 C-217.52765614 31.33869921 -211.39000297 29.57654296 -205.11035156 28.17773438 C-204.34150635 28.00564453 -203.57266113 27.83355469 -202.78051758 27.65625 C-196.87436073 26.38629047 -191.00145239 25.63302972 -184.99658203 25.02685547 C-179.23530149 24.40505792 -173.74210161 23.17891437 -168.12670898 21.77587891 C-158.03618221 19.28430481 -147.75377726 17.85446756 -137.48535156 16.30273438 C-131.46941499 15.39122883 -125.47859578 14.35112524 -119.48535156 13.30273438 C-118.48979248 13.12895264 -117.4942334 12.9551709 -116.46850586 12.77612305 C-110.80796039 11.78827037 -110.80796039 11.78827037 -105.14794922 10.79736328 C-95.03710764 9.03104922 -84.94044747 7.58840762 -74.73779297 6.46972656 C-72.09204236 6.17568476 -69.44899246 5.85973769 -66.8059082 5.54272461 C-63.973556 5.20421978 -61.14015697 4.87498842 -58.30664062 4.54638672 C-56.35009579 4.31895742 -54.39374546 4.0898535 -52.4375 3.85986328 C-48.84988349 3.43963373 -45.26146143 3.02688752 -41.67285156 2.61523438 C-39.95412842 2.41232788 -39.95412842 2.41232788 -38.20068359 2.20532227 C-32.69061069 1.57989154 -27.31786426 1.08414419 -21.77050781 1.28955078 C-19.54369658 1.28885652 -19.54369658 1.28885652 -16.87158203 0.75439453 C-11.28722404 -0.14322857 -5.64360967 0.01505632 0 0 Z " fill="#FFFFFF" transform="translate(1502.6728515625,913.759765625)"/>
<path d="M0 0 C2.11655391 0.031451 4.23235501 0.04102893 6.34912109 0.046875 C14.39091578 0.09226893 22.34682776 0.50650136 30.35302734 1.28125 C32.25644297 1.43900061 34.16009257 1.59395338 36.06396484 1.74609375 C45.36681621 2.5156727 54.60442081 3.35280788 63.83349609 4.78125 C68.18435702 5.39935233 72.54355628 5.84225584 76.91552734 6.28125 C84.44302139 7.04888053 91.88558393 8.05185383 99.35302734 9.28125 C101.34244927 9.59737163 103.33205097 9.91236282 105.32177734 10.2265625 C107.54055283 10.57796414 109.75930253 10.92952857 111.97802734 11.28125 C113.02748535 11.44737793 114.07694336 11.61350586 115.15820312 11.78466797 C121.11647481 12.73638185 127.05589301 13.75912432 132.98974609 14.85253906 C135.66683677 15.33817659 138.3485309 15.76190672 141.04052734 16.15625 C170.54344656 20.64890077 170.54344656 20.64890077 181.27099609 23.5703125 C185.4538895 24.53518779 189.66718485 25.11741767 193.91552734 25.71875 C200.99162478 26.72105109 207.98531905 27.92701036 214.97802734 29.40625 C215.78957275 29.57697021 216.60111816 29.74769043 217.43725586 29.92358398 C223.07826577 31.14386921 223.07826577 31.14386921 225.35302734 32.28125 C225.35302734 54.06125 225.35302734 75.84125 225.35302734 98.28125 C216.62017055 96.69345786 208.00095073 94.93225068 199.35302734 92.96875 C198.67149597 92.81473724 197.9899646 92.66072449 197.28778076 92.50204468 C188.39821369 90.49017886 179.54745135 88.37520332 170.74975586 85.98950195 C165.61996449 84.59908741 160.47032658 83.34628852 155.29052734 82.15625 C150.04467244 80.94864836 144.88167679 79.60781717 139.74365234 78 C132.79130621 75.90975214 125.6866725 74.29728342 118.58349609 72.80859375 C115.47513396 72.07369202 112.42209985 71.16516917 109.35302734 70.28125 C107.16695497 69.69258914 104.9793686 69.10953019 102.79052734 68.53125 C99.97761772 67.78278468 97.16533383 67.03197797 94.35302734 66.28125 C93.48000977 66.04857422 92.60699219 65.81589844 91.70751953 65.57617188 C71.52077789 60.18271387 71.52077789 60.18271387 62.88818359 57.140625 C60.41461103 56.30212583 57.92159217 55.58239508 55.40795898 54.875 C51.09532032 53.62891027 46.82033714 52.25991854 42.54052734 50.90625 C41.60660156 50.61492188 40.67267578 50.32359375 39.71044922 50.0234375 C34.22157983 48.28650173 28.87991132 46.34637853 23.55249023 44.16503906 C20.89698408 43.09800251 18.20752834 42.20215828 15.47802734 41.34375 C7.219966 38.63705894 -0.80542111 35.36775486 -8.52587891 31.37109375 C-10.16775795 30.52747634 -11.8244921 29.71273649 -13.48681641 28.91015625 C-31.76210769 20.0375369 -31.76210769 20.0375369 -35.64697266 13.28125 C-36.20947266 10.21875 -36.20947266 10.21875 -35.64697266 7.28125 C-27.18216519 -1.15972413 -11.28209161 -0.16819331 0 0 Z " fill="#FFFFFF" transform="translate(543.64697265625,913.71875)"/>
<path d="M0 0 C1.86680279 3.32777888 1.7125862 5.38854369 1.1328125 9.1015625 C-0.05616677 13.30974757 -2.21617032 16.90014777 -4.5625 20.5625 C-5.2225 20.5625 -5.8825 20.5625 -6.5625 20.5625 C-6.9028125 21.5834375 -6.9028125 21.5834375 -7.25 22.625 C-8.87476146 26.2613709 -10.89053257 29.59079263 -13.5625 32.5625 C-14.2225 32.5625 -14.8825 32.5625 -15.5625 32.5625 C-15.93375 33.366875 -15.93375 33.366875 -16.3125 34.1875 C-17.86902537 37.1448982 -19.59685673 39.85974051 -21.5625 42.5625 C-22.2225 42.5625 -22.8825 42.5625 -23.5625 42.5625 C-23.789375 43.119375 -24.01625 43.67625 -24.25 44.25 C-25.93800036 47.22409588 -28.02926517 49.28258865 -30.5625 51.5625 C-31.2225 51.5625 -31.8825 51.5625 -32.5625 51.5625 C-32.5625 52.2225 -32.5625 52.8825 -32.5625 53.5625 C-33.2225 53.5625 -33.8825 53.5625 -34.5625 53.5625 C-34.789375 54.119375 -35.01625 54.67625 -35.25 55.25 C-36.93627267 58.22105185 -39.092854 60.20772125 -41.5625 62.5625 C-44.14824596 65.08517899 -46.53056052 67.52143495 -48.75 70.375 C-49.348125 71.096875 -49.94625 71.81875 -50.5625 72.5625 C-51.2225 72.5625 -51.8825 72.5625 -52.5625 72.5625 C-52.5625 73.2225 -52.5625 73.8825 -52.5625 74.5625 C-54.171875 76.21875 -54.171875 76.21875 -56.3125 78.0625 C-57.00859375 78.6709375 -57.7046875 79.279375 -58.421875 79.90625 C-60.40710792 81.44226963 -62.28122045 82.5348966 -64.5625 83.5625 C-64.5625 84.2225 -64.5625 84.8825 -64.5625 85.5625 C-65.2225 85.5625 -65.8825 85.5625 -66.5625 85.5625 C-66.8925 86.5525 -67.2225 87.5425 -67.5625 88.5625 C-69.1640625 90.17578125 -69.1640625 90.17578125 -71.1875 91.875 C-71.90292969 92.4834375 -72.61835937 93.091875 -73.35546875 93.71875 C-74.08378906 94.3271875 -74.81210938 94.935625 -75.5625 95.5625 C-76.87705353 96.66422106 -78.18972996 97.76818804 -79.5 98.875 C-80.06589844 99.34550781 -80.63179687 99.81601562 -81.21484375 100.30078125 C-82.69695384 101.54200473 -82.69695384 101.54200473 -83.5625 103.5625 C-84.2225 103.5625 -84.8825 103.5625 -85.5625 103.5625 C-85.5625 104.2225 -85.5625 104.8825 -85.5625 105.5625 C-87.26684406 106.79898491 -88.97560725 108.0300488 -90.7109375 109.22265625 C-93.27677385 111.07936905 -95.34927119 113.29780075 -97.5625 115.5625 C-110.53776502 127.5625 -110.53776502 127.5625 -113.5625 127.5625 C-113.5625 128.2225 -113.5625 128.8825 -113.5625 129.5625 C-115.4375 131.6875 -115.4375 131.6875 -117.5625 133.5625 C-118.2225 133.5625 -118.8825 133.5625 -119.5625 133.5625 C-119.5625 134.2225 -119.5625 134.8825 -119.5625 135.5625 C-120.98471937 136.53028241 -122.41194765 137.49163752 -123.86523438 138.41210938 C-127.66052767 140.98452336 -130.84925869 144.37457243 -134.171875 147.515625 C-136.5625 149.5625 -136.5625 149.5625 -138.5625 149.5625 C-138.5625 150.2225 -138.5625 150.8825 -138.5625 151.5625 C-140.0234375 152.8515625 -140.0234375 152.8515625 -141.9375 154.1875 C-142.56398438 154.63351562 -143.19046875 155.07953125 -143.8359375 155.5390625 C-145.5625 156.5625 -145.5625 156.5625 -147.5625 156.5625 C-147.5625 157.2225 -147.5625 157.8825 -147.5625 158.5625 C-148.99609375 159.7890625 -148.99609375 159.7890625 -151 161.1875 C-155.17153919 164.19160309 -158.91852688 167.52437867 -162.6796875 171.0234375 C-164.5625 172.5625 -164.5625 172.5625 -166.5625 172.5625 C-166.5625 173.2225 -166.5625 173.8825 -166.5625 174.5625 C-168.0234375 175.8515625 -168.0234375 175.8515625 -169.9375 177.1875 C-170.56398438 177.63351562 -171.19046875 178.07953125 -171.8359375 178.5390625 C-173.5625 179.5625 -173.5625 179.5625 -175.5625 179.5625 C-175.5625 180.2225 -175.5625 180.8825 -175.5625 181.5625 C-176.5525 181.8925 -177.5425 182.2225 -178.5625 182.5625 C-178.81942627 181.95253174 -179.07635254 181.34256348 -179.34106445 180.71411133 C-180.51517872 177.93275805 -181.69503047 175.15387398 -182.875 172.375 C-183.27912109 171.41529297 -183.68324219 170.45558594 -184.09960938 169.46679688 C-184.49599609 168.53544922 -184.89238281 167.60410156 -185.30078125 166.64453125 C-185.66212158 165.79093018 -186.02346191 164.9373291 -186.39575195 164.05786133 C-187.62187339 161.43551622 -189.03496822 159.01980024 -190.5625 156.5625 C-193.76311299 151.30315938 -196.80819257 146.07111486 -199.5625 140.5625 C-200.87403999 138.45608729 -202.21176237 136.37070241 -203.57421875 134.296875 C-204.5625 132.5625 -204.5625 132.5625 -204.5625 130.5625 C-205.5525 130.2325 -206.5425 129.9025 -207.5625 129.5625 C-208.25 127.5 -208.25 127.5 -208.5625 125.5625 C-206.33789687 123.93092369 -204.10822432 122.30720115 -201.875 120.6875 C-201.24916016 120.22730469 -200.62332031 119.76710938 -199.97851562 119.29296875 C-196.61572529 116.86330872 -193.54111244 114.88616838 -189.5625 113.5625 C-189.5625 112.9025 -189.5625 112.2425 -189.5625 111.5625 C-187.65625 109.828125 -187.65625 109.828125 -185.0625 107.8125 C-183.68771484 106.74128906 -183.68771484 106.74128906 -182.28515625 105.6484375 C-181.38667969 104.96007812 -180.48820312 104.27171875 -179.5625 103.5625 C-178.85996094 103.01851562 -178.15742187 102.47453125 -177.43359375 101.9140625 C-171.46695013 97.35771646 -165.35535546 92.80593549 -158.5625 89.5625 C-158.5625 88.9025 -158.5625 88.2425 -158.5625 87.5625 C-156.62906418 86.26258565 -154.63767981 85.04848685 -152.625 83.875 C-147.52222264 80.85340739 -142.84049017 77.61173858 -138.26953125 73.8125 C-136.5625 72.5625 -136.5625 72.5625 -134.5625 72.5625 C-134.5625 71.9025 -134.5625 71.2425 -134.5625 70.5625 C-132.8828125 69.2734375 -132.8828125 69.2734375 -130.6875 67.9375 C-129.96820312 67.49148438 -129.24890625 67.04546875 -128.5078125 66.5859375 C-126.5625 65.5625 -126.5625 65.5625 -124.5625 65.5625 C-124.5625 64.9025 -124.5625 64.2425 -124.5625 63.5625 C-122.8059082 62.17382812 -122.8059082 62.17382812 -120.36328125 60.59375 C-119.48349609 60.02269531 -118.60371094 59.45164062 -117.69726562 58.86328125 C-116.76591797 58.26902344 -115.83457031 57.67476562 -114.875 57.0625 C-113.96298828 56.46824219 -113.05097656 55.87398437 -112.11132812 55.26171875 C-108.00293723 52.61442106 -104.16113729 50.26800906 -99.5625 48.5625 C-99.5625 47.9025 -99.5625 47.2425 -99.5625 46.5625 C-93.8125 43.5625 -93.8125 43.5625 -91.5625 43.5625 C-91.5625 42.9025 -91.5625 42.2425 -91.5625 41.5625 C-89.61262739 40.21601785 -87.59950593 38.96062966 -85.5625 37.75 C-84.36693047 37.03558621 -83.17161751 36.32074288 -81.9765625 35.60546875 C-80.84992188 34.93128906 -79.72328125 34.25710938 -78.5625 33.5625 C-77.01799551 32.56688864 -75.47570974 31.56780936 -73.9375 30.5625 C-70.5625 28.5625 -70.5625 28.5625 -67.5625 28.5625 C-67.5625 27.9025 -67.5625 27.2425 -67.5625 26.5625 C-66.29558493 25.88841692 -65.02379251 25.22349503 -63.75 24.5625 C-63.04230469 24.19125 -62.33460938 23.82 -61.60546875 23.4375 C-59.5625 22.5625 -59.5625 22.5625 -56.5625 22.5625 C-56.5625 21.9025 -56.5625 21.2425 -56.5625 20.5625 C-54.48683498 19.09495209 -52.43652925 17.7855639 -50.25 16.5 C-49.58572998 16.10659424 -48.92145996 15.71318848 -48.23706055 15.30786133 C-11.10743398 -6.23099955 -11.10743398 -6.23099955 0 0 Z " fill="#FFFFFF" transform="translate(1441.5625,704.4375)"/>
<path d="M0 0 C1.33295747 0.45371597 2.65970583 0.92598555 3.98046875 1.4140625 C4.70113525 1.67445313 5.42180176 1.93484375 6.16430664 2.203125 C15.25027536 5.63216005 23.71762957 10.2902437 32.16796875 15.0390625 C33.86179687 15.98265625 33.86179687 15.98265625 35.58984375 16.9453125 C40.52724789 19.79059624 40.52724789 19.79059624 42.16796875 21.0390625 C42.16796875 21.6990625 42.16796875 22.3590625 42.16796875 23.0390625 C42.86921875 23.1421875 43.57046875 23.2453125 44.29296875 23.3515625 C47.55934522 24.13265253 50.21515395 25.45964993 53.16796875 27.0390625 C53.16796875 27.6990625 53.16796875 28.3590625 53.16796875 29.0390625 C53.68617188 29.12542969 54.204375 29.21179688 54.73828125 29.30078125 C58.11570912 30.32704149 61.01418237 32.07994754 64.04296875 33.8515625 C64.64238281 34.19509766 65.24179687 34.53863281 65.859375 34.89257812 C69.73202624 37.13132337 73.55231576 39.4019578 77.16796875 42.0390625 C77.16796875 42.6990625 77.16796875 43.3590625 77.16796875 44.0390625 C79.82025687 45.11431444 82.45165329 46.13362401 85.16796875 47.0390625 C85.16796875 47.6990625 85.16796875 48.3590625 85.16796875 49.0390625 C85.81507813 49.255625 86.4621875 49.4721875 87.12890625 49.6953125 C91.31258371 51.54516475 94.98278554 54.02278109 98.79296875 56.5390625 C99.55609375 57.03792969 100.31921875 57.53679688 101.10546875 58.05078125 C104.13538104 60.03351333 107.15511331 62.0304922 110.16796875 64.0390625 C110.16796875 64.6990625 110.16796875 65.3590625 110.16796875 66.0390625 C110.88984375 66.3071875 111.61171875 66.5753125 112.35546875 66.8515625 C115.16563258 68.03807612 117.65213432 69.31391889 120.16796875 71.0390625 C120.16796875 71.6990625 120.16796875 72.3590625 120.16796875 73.0390625 C120.90660156 73.30203125 121.64523437 73.565 122.40625 73.8359375 C125.17545711 75.04232476 127.04516978 76.36453578 129.35546875 78.2890625 C133.44763701 81.58897596 137.70630183 84.22702532 142.296875 86.77734375 C143.22306641 87.40189453 143.22306641 87.40189453 144.16796875 88.0390625 C144.16796875 88.6990625 144.16796875 89.3590625 144.16796875 90.0390625 C145.02841797 90.45091797 145.02841797 90.45091797 145.90625 90.87109375 C152.37837175 94.21334661 158.19421343 98.71961384 163.8828125 103.234375 C165.48437889 104.49920179 167.10323817 105.74229399 168.734375 106.96875 C169.55808594 107.59007812 170.38179687 108.21140625 171.23046875 108.8515625 C171.98457031 109.41488281 172.73867188 109.97820312 173.515625 110.55859375 C174.06089844 111.04714844 174.60617187 111.53570313 175.16796875 112.0390625 C175.16796875 112.6990625 175.16796875 113.3590625 175.16796875 114.0390625 C175.874375 114.2865625 176.58078125 114.5340625 177.30859375 114.7890625 C180.528214 116.19654676 183.08866867 117.95914461 185.91796875 120.0390625 C186.8821875 120.7403125 187.84640625 121.4415625 188.83984375 122.1640625 C191.16796875 124.0390625 191.16796875 124.0390625 192.16796875 126.0390625 C191.61109375 126.8434375 191.05421875 127.6478125 190.48046875 128.4765625 C187.77877498 132.51457791 185.48215321 136.77109937 183.16796875 141.0390625 C182.50796875 141.0390625 181.84796875 141.0390625 181.16796875 141.0390625 C180.94109375 141.8640625 180.71421875 142.6890625 180.48046875 143.5390625 C179.44284551 146.3060578 178.56993254 148.08713831 176.98046875 150.4765625 C172.9946809 156.61397034 170.17673693 163.38736771 167.16796875 170.0390625 C166.65363281 171.16570312 166.13929688 172.29234375 165.609375 173.453125 C164.45715757 175.97951675 163.30984752 178.5079856 162.16796875 181.0390625 C158.57431458 179.32390937 155.16579988 177.69099004 152.16796875 175.0390625 C152.16796875 174.3790625 152.16796875 173.7190625 152.16796875 173.0390625 C151.43578125 172.80058594 150.70359375 172.56210937 149.94921875 172.31640625 C146.7607435 170.8520363 145.05261492 169.15833982 142.66796875 166.6015625 C140.31318956 164.08509953 138.35451726 162.15041519 135.38671875 160.37890625 C134.65453125 159.93675781 133.92234375 159.49460937 133.16796875 159.0390625 C133.16796875 158.3790625 133.16796875 157.7190625 133.16796875 157.0390625 C132.42546875 156.7709375 131.68296875 156.5028125 130.91796875 156.2265625 C128.27734926 155.08629499 126.31244031 153.94525944 124.16796875 152.0390625 C124.16796875 151.3790625 124.16796875 150.7190625 124.16796875 150.0390625 C123.348125 149.69875 123.348125 149.69875 122.51171875 149.3515625 C118.39778003 147.04775682 115.23393051 143.57392746 111.82421875 140.3515625 C109.60752948 138.4217389 107.85280504 137.15352285 105.16796875 136.0390625 C105.16796875 135.3790625 105.16796875 134.7190625 105.16796875 134.0390625 C104.50796875 134.0390625 103.84796875 134.0390625 103.16796875 134.0390625 C101.04296875 132.1640625 101.04296875 132.1640625 99.16796875 130.0390625 C99.16796875 129.3790625 99.16796875 128.7190625 99.16796875 128.0390625 C98.5853125 127.77609375 98.00265625 127.513125 97.40234375 127.2421875 C95.06189708 125.98194699 93.37337574 124.58286561 91.41796875 122.7890625 C88.69406346 120.34414193 85.93717705 118.07150939 82.98046875 115.9140625 C79.74116223 113.53857106 76.97173333 110.92293464 74.16796875 108.0390625 C72.68296875 107.0490625 72.68296875 107.0490625 71.16796875 106.0390625 C71.16796875 105.3790625 71.16796875 104.7190625 71.16796875 104.0390625 C70.50796875 104.0390625 69.84796875 104.0390625 69.16796875 104.0390625 C67.43820152 102.41412965 65.807304 100.75309169 64.16796875 99.0390625 C62.63078017 97.47215675 61.08879049 95.9099519 59.54296875 94.3515625 C58.78757812 93.58457031 58.0321875 92.81757812 57.25390625 92.02734375 C55.13261516 89.89086481 55.13261516 89.89086481 52.16796875 88.0390625 C52.16796875 87.3790625 52.16796875 86.7190625 52.16796875 86.0390625 C51.50796875 86.0390625 50.84796875 86.0390625 50.16796875 86.0390625 C50.16796875 85.3790625 50.16796875 84.7190625 50.16796875 84.0390625 C49.61109375 83.7915625 49.05421875 83.5440625 48.48046875 83.2890625 C44.61095873 81.19743546 41.04987609 78.37600784 38.16796875 75.0390625 C38.16796875 74.3790625 38.16796875 73.7190625 38.16796875 73.0390625 C37.57886719 72.78769531 36.98976563 72.53632812 36.3828125 72.27734375 C33.89152673 70.88450849 32.54496461 69.4182053 30.73046875 67.2265625 C28.67097306 64.78256868 26.64689622 62.52956935 24.35546875 60.2890625 C22.36842624 58.24524735 21.23353826 56.6545513 20.16796875 54.0390625 C19.50796875 54.0390625 18.84796875 54.0390625 18.16796875 54.0390625 C18.16796875 53.3790625 18.16796875 52.7190625 18.16796875 52.0390625 C17.61109375 51.8121875 17.05421875 51.5853125 16.48046875 51.3515625 C13.50637287 49.66356214 11.4478801 47.57229733 9.16796875 45.0390625 C9.16796875 44.3790625 9.16796875 43.7190625 9.16796875 43.0390625 C8.50796875 43.0390625 7.84796875 43.0390625 7.16796875 43.0390625 C5.66015625 41.359375 5.66015625 41.359375 4.04296875 39.1640625 C3.50414062 38.44476562 2.9653125 37.72546875 2.41015625 36.984375 C1.16796875 35.0390625 1.16796875 35.0390625 1.16796875 33.0390625 C-0.31703125 32.5440625 -0.31703125 32.5440625 -1.83203125 32.0390625 C-3.4375 30.04296875 -3.4375 30.04296875 -5.01953125 27.6015625 C-5.54933594 26.79847656 -6.07914063 25.99539063 -6.625 25.16796875 C-7.83203125 23.0390625 -7.83203125 23.0390625 -7.83203125 21.0390625 C-8.49203125 21.0390625 -9.15203125 21.0390625 -9.83203125 21.0390625 C-13.46289115 15.37170553 -16.49716343 9.96752269 -15.83203125 3.0390625 C-12.46375183 -2.96526168 -5.7621516 -1.44494321 0 0 Z " fill="#FFFFFF" transform="translate(623.83203125,703.9609375)"/>
<path d="M0 0 C2.1875 0.9375 2.1875 0.9375 5.1875 2.9375 C11.03023176 21.2107416 -0.10625879 46.38344689 -5.98486328 63.52294922 C-7.82771157 68.89928241 -9.62859591 74.26984712 -11.20703125 79.73046875 C-12.97964511 85.69708009 -15.23179662 91.45724394 -17.5 97.25 C-18.39888324 99.56232677 -19.29731505 101.87482908 -20.1953125 104.1875 C-20.86095215 105.89873047 -20.86095215 105.89873047 -21.54003906 107.64453125 C-22.68645864 110.61132081 -23.81432793 113.58392208 -24.9296875 116.5625 C-30.33597239 130.99758912 -36.13875305 145.25732333 -42.75 159.1875 C-45.599386 165.2453727 -47.99953277 171.45444943 -50.4375 177.6875 C-54.44116979 187.89670351 -58.93028618 197.78476538 -63.78955078 207.61425781 C-66.43834992 212.98289328 -68.83031808 218.28660172 -70.8125 223.9375 C-75.52284778 220.8314011 -80.19816777 217.68489055 -84.8125 214.4375 C-97.52880359 205.52237191 -110.5748531 198.17042542 -124.8125 191.9375 C-124.06806641 190.44863281 -124.06806641 190.44863281 -123.30859375 188.9296875 C-122.98391113 188.2802417 -122.65922852 187.6307959 -122.32470703 186.96166992 C-121.59807849 185.5085779 -120.87118329 184.05561919 -120.14404297 182.6027832 C-118.44805289 179.21338053 -116.75556688 175.8224823 -115.07421875 172.42578125 C-110.44836263 163.0967874 -105.60957199 153.88640665 -100.73291016 144.68652344 C-100.07903296 143.44398332 -99.44042696 142.19335392 -98.8125 140.9375 C-98.1525 140.9375 -97.4925 140.9375 -96.8125 140.9375 C-96.57144531 140.14085937 -96.33039063 139.34421875 -96.08203125 138.5234375 C-94.50009825 134.05508521 -92.53443472 129.83985697 -90.5 125.5625 C-90.12166016 124.75039063 -89.74332031 123.93828125 -89.35351562 123.1015625 C-86.83990648 117.79363659 -83.99205101 112.86873933 -80.8125 107.9375 C-79.29547731 105.46853836 -77.80300363 102.98504455 -76.3125 100.5 C-75.92521729 99.85474365 -75.53793457 99.2094873 -75.13891602 98.54467773 C-72.26128649 93.73095834 -69.47482646 88.8741757 -66.8125 83.9375 C-66.1525 83.9375 -65.4925 83.9375 -64.8125 83.9375 C-64.56757812 82.93589844 -64.32265625 81.93429687 -64.0703125 80.90234375 C-62.87512713 76.71919495 -60.91243189 73.21477144 -58.6875 69.5 C-58.31496094 68.86384766 -57.94242188 68.22769531 -57.55859375 67.57226562 C-56.65015501 66.02326111 -55.73230703 64.47978109 -54.8125 62.9375 C-54.1525 62.9375 -53.4925 62.9375 -52.8125 62.9375 C-52.46251953 61.65939453 -52.46251953 61.65939453 -52.10546875 60.35546875 C-50.64843933 56.50380486 -48.57822373 53.50604713 -46.125 50.25 C-42.95278179 45.93537156 -39.89794331 41.61062719 -37.0625 37.0625 C-30.98695986 27.36748913 -30.98695986 27.36748913 -27.8125 23.9375 C-27.1525 23.9375 -26.4925 23.9375 -25.8125 23.9375 C-25.52375 23.174375 -25.235 22.41125 -24.9375 21.625 C-23.8125 18.9375 -23.8125 18.9375 -21.8125 15.9375 C-21.1525 15.9375 -20.4925 15.9375 -19.8125 15.9375 C-19.544375 15.339375 -19.27625 14.74125 -19 14.125 C-17.81332594 11.93902146 -16.71650887 10.52417406 -14.8125 8.9375 C-14.1525 8.9375 -13.4925 8.9375 -12.8125 8.9375 C-12.56113281 8.33550781 -12.30976562 7.73351562 -12.05078125 7.11328125 C-9.62061881 2.84324819 -4.9126189 -0.10916931 0 0 Z " fill="#FFFFFF" transform="translate(1254.8125,555.0625)"/>
<path d="M0 0 C4.01738722 2.28439665 6.07107284 3.86658466 8 8 C9.93330603 9.09166275 9.93330603 9.09166275 12 10 C13.75 11.5 13.75 11.5 15 13 C15 13.66 15 14.32 15 15 C15.66 15 16.32 15 17 15 C21 20.41176471 21 20.41176471 21 23 C21.66 23 22.32 23 23 23 C24.84031847 25.25529224 26.5577724 27.51201751 28.25 29.875 C28.74725586 30.56102295 29.24451172 31.2470459 29.75683594 31.95385742 C32.94173532 36.39324056 35.87372767 40.909039 38.58984375 45.65234375 C40.70784369 49.17843229 43.14134859 52.46531575 45.58203125 55.7734375 C46.94163028 57.90834507 47.56528508 59.52720605 48 62 C48.66 62 49.32 62 50 62 C51.48780292 64.55781875 52.96533338 67.12070266 54.4375 69.6875 C54.85837891 70.40873047 55.27925781 71.12996094 55.71289062 71.87304688 C57.81606794 75.55781352 59.53390468 78.70344855 60 83 C60.66 83 61.32 83 62 83 C62.29132813 83.53367187 62.58265625 84.06734375 62.8828125 84.6171875 C65.14371987 88.72663549 67.45312023 92.795565 69.875 96.8125 C70.3803125 97.65167969 70.885625 98.49085938 71.40625 99.35546875 C72.48811638 101.15062448 73.57150199 102.94486532 74.65625 104.73828125 C79.17293005 112.3242507 83.1638806 120.11184087 87.03271484 128.04101562 C87.71907544 129.4310604 88.41871608 130.8145832 89.12744141 132.19335938 C89.67730713 133.26553711 89.67730713 133.26553711 90.23828125 134.359375 C90.57512939 135.00874023 90.91197754 135.65810547 91.2590332 136.32714844 C92 138 92 138 92 140 C92.66 140 93.32 140 94 140 C94.42297363 140.86165771 94.42297363 140.86165771 94.85449219 141.74072266 C96.14867899 144.37096388 97.44927993 146.9979839 98.75 149.625 C99.41515625 150.98044922 99.41515625 150.98044922 100.09375 152.36328125 C101.91630706 156.03519769 103.69513319 159.55191115 106.00390625 162.9453125 C108.95355015 167.45924896 111.00574777 172.32904343 113.1875 177.25 C114.07668112 179.23443854 114.96599719 181.21881662 115.85546875 183.203125 C116.24371826 184.07614258 116.63196777 184.94916016 117.03198242 185.84863281 C117.66036618 187.24518203 118.31513273 188.63026547 119 190 C117.91203125 190.49628906 116.8240625 190.99257813 115.703125 191.50390625 C107.61668912 195.23028938 99.8104103 199.07419007 92.22265625 203.75 C90 205 90 205 88 205 C88 205.66 88 206.32 88 207 C87.23429688 207.38478516 87.23429688 207.38478516 86.453125 207.77734375 C80.32022303 211.00690383 74.94506779 214.94722024 69.50390625 219.20703125 C67 221 67 221 65 221 C64.67128906 220.13761719 64.34257813 219.27523437 64.00390625 218.38671875 C61.16130831 211.09148772 58.10176443 203.98389778 54.6875 196.9375 C50.91975833 189.14860962 47.59764153 181.23906363 44.38232422 173.20849609 C41.8960636 167.05188646 39.20292251 161.0393265 36.3125 155.0625 C32.49325639 147.16106721 29.16577301 139.18489772 26 131 C25.25365272 129.14490583 24.50728156 127.28981818 23.75708008 125.4362793 C20.35390909 117.01340367 17.1441808 108.5223848 14 100 C13.67708984 99.12827148 13.35417969 98.25654297 13.02148438 97.35839844 C5.87492673 78.03846717 5.87492673 78.03846717 3.0546875 68.4296875 C2.21546776 65.70066922 1.32317543 63.01487583 0.3828125 60.3203125 C-15.20290101 15.50873696 -15.20290101 15.50873696 -10 2 C-6.43643734 -0.8706477 -4.3179359 -1.57973265 0 0 Z " fill="#FFFFFF" transform="translate(801,556)"/>
<path d="M0 0 C4.12342912 1.53429921 5.74425849 4.2410422 7.6875 8 C34.33020235 69.52799074 29.38850397 156.45612884 28.6875 222 C9.2175 222 -10.2525 222 -30.3125 222 C-32.34251287 32.1937965 -32.34251287 32.1937965 -4.3125 1 C-2.3125 0 -2.3125 0 0 0 Z " fill="#FFFFFF" transform="translate(1026.3125,503)"/>
</svg>
